<?xml version="1.0" encoding="UTF-8"?>
<svg xmlns="http://www.w3.org/2000/svg" viewBox="454.4599914550781 286.3999938964844 371.0799865722656 196.20001220703125" preserveAspectRatio="xMidYMid meet">
<polygon class="st0" points="593.4,434.75 585.71,436.29 585.71,427.91 591.09,400.93 598.01,394.59 602,427.91  " style="fill: #ABCEE4;"></polygon><polygon class="st1" points="593.4,434.75 585.71,436.29 568.03,462.81 584.18,459.73  " style="fill: #87A6C8;"></polygon><polygon class="st2" points="604.93,388.25 598.01,394.59 602,427.91 593.4,434.75 584.18,459.73 568.03,462.81 588.4,469.73    591.09,465.11 588.4,459.73 603.01,436.29 610.12,430.52 615.31,399.39  " style="fill: #637DAD;"></polygon><polygon class="st3" points="588.4,469.73 589.27,475.49 559.19,477.8 556.12,473.76 568.03,462.81  " style="fill: #3F5591;"></polygon><polygon class="st4" points="612.07,418.84 623.76,412.27 623.76,380.56 615.31,399.39  " style="fill: #51699F;"></polygon><polygon class="st5" points="612.07,334.44 600.32,352.12 596.09,357.12 591.09,400.93 604.93,388.25 602,365.33 612.07,341.74     " style="fill: #7592BA;"></polygon><polygon class="st6" points="585.71,388.25 574.57,374.41 568.03,370.57 567.46,376.53 556.12,382.87 568.03,403.24 571.8,404.39    579.56,412.27 587.52,418.84 591.09,400.93 592.54,388.25  " style="fill: #2D4183;"></polygon><polygon class="st3" points="493.38,382.67 525.66,399.7 529.7,398.24 516.15,384.4  " style="fill: #3F5591;"></polygon><polygon class="st5" points="516.15,384.4 518.17,378.64 524.51,374.41 522.08,390.46  " style="fill: #7592BA;"></polygon><polygon class="st5" points="454.46,408.62 458.79,404.39 481.44,388.25 476.95,398.82  " style="fill: #7592BA;"></polygon><polygon class="st4" points="470.41,396.11 478.68,376.53 487.32,374.41 481.44,388.25  " style="fill: #51699F;"></polygon><polygon class="st7" points="467.15,376.53 478.68,376.53 487.32,374.41 503.18,361.69 501.45,354.43 483.86,370.57 473.2,374.41    465.7,375.18  " style="fill: #336987;"></polygon><polygon class="st5" points="465.7,375.18 464.55,373.31 475.36,370.86 482.71,364.51 483.86,370.57 473.2,374.41  " style="fill: #7592BA;"></polygon><polygon class="st1" points="482.71,364.51 490.06,350.68 496.26,345.06 502.02,350.68 501.45,354.43 483.86,370.57  " style="fill: #87A6C8;"></polygon><polygon class="st3" points="623.76,421.98 625.3,427.91 637.6,448.78 637.6,456.27 643.75,448.78 637.75,425.74  " style="fill: #3F5591;"></polygon><polygon class="st8" points="647.52,432.08 658.07,452.24 649.9,457.62 648.36,446.67  " style="fill: #1B2D75;"></polygon><polygon class="st6" points="648.36,446.67 647.31,428.45 645.83,427.91 637.75,425.74 643.75,448.78 637.6,456.27 636.25,461.46    649.9,457.62  " style="fill: #2D4183;"></polygon><polygon class="st8" points="651.94,456.27 655.28,464.73 634.52,463.77 636.25,461.46 649.9,457.62  " style="fill: #1B2D75;"></polygon><polygon class="st9" points="655.28,464.73 656.62,472.42 655.28,475.3 624.53,475.3 626.07,471.46 634.52,463.77  " style="fill: #142660;"></polygon><polygon class="st4" points="538.82,403.33 544.97,400.26 524.51,374.41 522.08,390.46 529.7,398.24  " style="fill: #51699F;"></polygon><polygon class="st6" points="556.12,399.7 555.25,396.62 552.37,398.91 544.97,400.26 538.82,403.33 529.7,398.24 525.66,399.7    536.9,411.4 541.03,411.4 538.44,407.27 551.12,407.46  " style="fill: #2D4183;"></polygon><polygon class="st8" points="551.12,407.46 544.4,411.4 541.03,411.4 538.44,407.27  " style="fill: #1B2D75;"></polygon><polygon class="st2" points="555.25,396.62 556.12,382.87 549.59,365.48 542.96,376.53 552.76,393.05 552.37,398.91  " style="fill: #637DAD;"></polygon><polygon class="st3" points="542.96,387.29 522.08,369.85 524.51,374.41 544.97,400.26  " style="fill: #3F5591;"></polygon><polygon class="st10" points="623.76,380.56 617.91,342.61 612.07,334.44 612.07,341.74 602,365.33 604.93,388.25 615.31,399.39     " style="fill: #99BAD6;"></polygon><polygon class="st3" points="703.11,411.4 685.93,429.95 672.77,434.75 668.34,427.91 640.87,423.93 634.52,418.84 634.52,418.84    629.14,398.24 623.76,391.71 623.76,412.27 623.76,412.27 612.07,418.84 645.83,427.91 675.26,438.59 683.05,441.48 687.37,436.29    705.82,429.95  " style="fill: #3F5591;"></polygon><polygon class="st4" points="754.82,436.29 778.17,437.26 780.47,432.08 753.38,423.93 742.8,426.44 751.07,429.95  " style="fill: #51699F;"></polygon><polygon class="st3" points="568.03,370.57 557.66,340.59 556.12,346.64 556.12,382.87 567.46,376.53  " style="fill: #3F5591;"></polygon><polygon class="st10" points="574.57,374.41 570.05,327.91 574.57,322.14 596.09,357.12 592.54,388.25 585.71,388.25  " style="fill: #99BAD6;"></polygon><polygon class="st11" points="623.76,300.81 640.87,319.55 617.91,342.61 612.07,334.44  " style="fill: #BDE2F2;"></polygon><polygon class="st0" points="640.87,319.55 679.59,330.5 670.07,334.44 626.47,334.01  " style="fill: #ABCEE4;"></polygon><polygon class="st11" points="649.9,334.24 682.47,370.57 684.77,349.88 670.07,334.44  " style="fill: #BDE2F2;"></polygon><polygon class="st10" points="697.31,331.37 679.59,330.5 670.07,334.44 684.77,349.88 700.05,346.46  " style="fill: #99BAD6;"></polygon><polygon class="st11" points="716.84,326.99 723.34,326.99 742.8,340.19 748.48,349.88 707.68,340.59  " style="fill: #BDE2F2;"></polygon><polygon class="st1" points="769.52,407.27 764.91,376.53 762.13,370.32 758.28,402.04   " style="fill: #87A6C8;"></polygon><polygon class="st2" points="696.3,388.87 697.08,361.78 704.38,352.12 712.45,358.46 700.05,390.46  " style="fill: #637DAD;"></polygon><polygon class="st4" points="712.45,358.46 719.08,366.92 723.34,401.25 710.88,403.05 706.68,394.34 704.38,379.3  " style="fill: #51699F;"></polygon><polygon class="st3" points="704.38,379.3 706.68,394.34 700.05,390.46  " style="fill: #3F5591;"></polygon><polygon class="st5" points="769.52,407.27 758.28,402.04 761.38,376.53 762.13,370.32 754.82,356.44 749.92,369.85 756.03,373.41    744.15,398.24 742.8,404.82 732.65,411.4 786.53,421.98 792.1,417.9  " style="fill: #7592BA;"></polygon><polygon class="st2" points="786.53,421.98 747.71,414.36 753.38,423.93 780.47,432.08 778.17,437.26 785.66,451.57 787.68,444.85     " style="fill: #637DAD;"></polygon><polygon class="st3" points="747.71,414.36 732.65,411.4 742.8,404.82 744.15,398.24 710.88,403.05 716.84,415.44 722.63,417.9    742.8,426.44 753.38,423.93  " style="fill: #3F5591;"></polygon><polygon class="st1" points="792.1,417.9 796.52,423.22 803.44,458.96 797.77,463.58 787.68,444.85 786.53,421.98  " style="fill: #87A6C8;"></polygon><polygon class="st4" points="785.66,451.57 784.22,470.3 797.77,463.58 787.68,444.85  " style="fill: #51699F;"></polygon><polygon class="st3" points="800,461.76 803.44,471.26 784.22,470.3 797.77,463.58  " style="fill: #3F5591;"></polygon><polygon class="st6" points="803.44,471.26 804.59,482.6 775,482.6 784.22,470.3  " style="fill: #2D4183;"></polygon><polygon class="st2" points="696.3,388.87 679.59,420.45 693.22,411.4  " style="fill: #637DAD;"></polygon><polygon class="st1" points="684.77,378.06 682.47,370.57 671.62,358.46 671.62,370.57 655.28,396.62 663.73,398.24 671.62,425.74    679.59,420.45 696.3,388.87 697.08,361.78  " style="fill: #87A6C8;"></polygon><polygon class="st5" points="663.73,398.24 655.28,396.62 636.04,408.07 631.45,380.56 622.11,369.85 623.76,380.56 623.76,391.71    629.14,398.24 634.52,418.84 637.27,415.44 671.62,425.74  " style="fill: #7592BA;"></polygon><polygon class="st1" points="655.28,396.62 637.27,380.76 631.45,380.56 636.04,408.07  " style="fill: #87A6C8;"></polygon><polygon class="st10" points="671.62,370.57 620.69,360.65 622.11,369.85 631.45,380.56 637.27,380.76 655.28,396.62  " style="fill: #99BAD6;"></polygon><polygon class="st1" points="652.12,336.73 619.38,352.12 617.91,342.61 626.47,334.01 649.9,334.24  " style="fill: #87A6C8;"></polygon><polygon class="st0" points="652.12,336.73 671.62,358.46 671.62,370.57 620.69,360.65 619.38,352.12  " style="fill: #ABCEE4;"></polygon><polygon class="st10" points="574.57,322.14 579.56,314.94 556.12,305.14 557.66,340.59 570.05,327.91  " style="fill: #99BAD6;"></polygon><polygon class="st1" points="570.05,327.91 574.57,374.41 568.03,370.57 557.66,340.59  " style="fill: #87A6C8;"></polygon><polygon class="st12" points="719.08,366.92 752.09,352.41 748.48,349.88 707.68,340.59 704.38,345.49 704.38,352.12    712.45,358.46  " style="fill: #CEE7F2;"></polygon><polygon class="st10" points="752.09,352.41 754.82,356.44 749.92,369.85 722.63,393.76 719.08,366.92  " style="fill: #99BAD6;"></polygon><polygon class="st1" points="749.92,369.85 756.03,373.41 744.15,398.24 723.34,401.25 722.63,393.76  " style="fill: #87A6C8;"></polygon><polygon class="st11" points="579.56,314.94 598.01,286.4 609.54,291.78 612.07,334.44 600.32,352.12 596.09,357.12 574.57,322.14     " style="fill: #BDE2F2;"></polygon><polygon class="st0" points="609.54,291.78 623.76,300.81 612.07,334.44  " style="fill: #ABCEE4;"></polygon><polygon class="st0" points="598.01,286.4 568.03,288.32 542.96,302.54 556.12,305.14 579.56,314.94  " style="fill: #ABCEE4;"></polygon><polygon class="st10" points="542.96,302.54 516.15,326.99 516.15,340.19 535.37,336.73 551.12,304.15  " style="fill: #99BAD6;"></polygon><polygon class="st1" points="535.37,336.73 556.12,346.64 557.66,340.59 556.12,305.14 551.12,304.15  " style="fill: #87A6C8;"></polygon><polygon class="st6" points="549.59,365.48 535.37,336.73 556.12,346.64 556.12,382.87  " style="fill: #2D4183;"></polygon><polygon class="st8" points="518.17,378.64 516.15,371.29 522.08,364.51 522.08,369.85 524.51,374.41  " style="fill: #1B2D75;"></polygon><polygon class="st7" points="516.15,371.29 492.51,374.41 487.32,374.41 476.95,398.82 454.46,408.62 454.46,409.66 476.95,402.85    487.61,388.25 493.38,382.67 500.28,383.2 516.15,384.4 518.17,378.64  " style="fill: #336987;"></polygon><polygon class="st4" points="503.18,361.69 516.15,371.29 492.51,374.41 487.32,374.41  " style="fill: #51699F;"></polygon><polygon class="st1" points="522.08,364.51 535.37,336.73 516.15,340.19 516.15,371.29  " style="fill: #87A6C8;"></polygon><polygon class="st4" points="547.28,383.82 542.96,376.53 522.08,369.85 542.96,387.29 544.97,400.26 552.37,398.91 552.76,393.05     " style="fill: #51699F;"></polygon><polygon class="st5" points="542.96,376.53 549.59,365.48 535.37,336.73 522.08,364.51 522.08,369.85  " style="fill: #7592BA;"></polygon><polygon class="st0" points="503.18,361.69 511.54,330.5 516.15,326.99 516.15,371.29  " style="fill: #ABCEE4;"></polygon><polygon class="st11" points="503.18,361.69 501.45,354.43 502.02,350.68 496.26,345.06 511.54,330.5  " style="fill: #BDE2F2;"></polygon><polygon class="st10" points="760.34,366.92 782.92,371.29 775,361.78 752.09,352.41 754.82,356.44  " style="fill: #99BAD6;"></polygon><polygon class="st0" points="775,361.78 778.17,356.44 752.09,342.61 742.8,340.19 748.48,349.88 752.09,352.41  " style="fill: #ABCEE4;"></polygon><polygon class="st11" points="778.17,356.44 794.98,366.92 804.59,381.81 782.92,371.29 775,361.78  " style="fill: #BDE2F2;"></polygon><polygon class="st0" points="804.59,381.81 808.72,388.25 808.72,399.7 800.08,408.07 800.08,391.71 782.92,371.29  " style="fill: #ABCEE4;"></polygon><polygon class="st10" points="808.72,399.7 806.7,421.98 811.32,429.95 799.21,421.98 800.08,408.07  " style="fill: #99BAD6;"></polygon><polygon class="st1" points="811.32,429.95 824.19,441.48 825.54,450.7 803.44,439.36 799.21,432.08 799.21,421.98  " style="fill: #87A6C8;"></polygon><polygon class="st5" points="814.13,444.85 821.89,457.58 824.77,457.58 825.54,450.7  " style="fill: #7592BA;"></polygon><polygon class="st2" points="771.76,369.13 775,379.3 771.76,408.32 769.52,407.27 764.91,376.53 760.34,366.92  " style="fill: #637DAD;"></polygon><polygon class="st3" points="759.43,436.29 741.94,454.06 738.01,463.58 742.8,463.58 779.99,440.74 778.17,437.26  " style="fill: #3F5591;"></polygon><polygon class="st6" points="779.99,440.74 742.8,463.58 738.01,463.58 735.83,466.51 753.38,470.3 753.38,463.69 760.34,463.77    762.37,458.58 782.14,444.85  " style="fill: #2D4183;"></polygon><polygon class="st9" points="753.38,470.3 754.82,478.95 722.63,478.95 725.42,472.99 735.83,466.51  " style="fill: #142660;"></polygon><polygon class="st8" points="647.31,428.45 637.75,425.74 623.76,421.98 625.3,427.91 640.28,435.47 647.44,430.6  " style="fill: #1B2D75;"></polygon><polygon class="st6" points="751.07,429.95 716.84,415.44 716.84,415.44 706.68,394.34 700.05,390.46 705.82,429.95 719.08,420.09   734.93,432.08 754.82,436.29 " style="fill: #2D4183;"></polygon><polygon class="st0" points="697.31,331.37 700.05,346.46 700.05,346.46 684.77,349.88 682.47,370.57 684.77,378.06 704.38,352.12   704.38,345.49 704.38,345.49 704.38,345.49 704.38,345.49 716.84,326.99 " style="fill: #ABCEE4;"></polygon><polygon class="st4" points="700.05,390.46 696.3,388.87 693.22,411.4 693.22,411.4 671.62,425.74 637.27,415.44 634.52,418.84   640.87,423.93 668.34,427.91 672.77,434.75 685.93,429.95 691.5,423.93 703.11,411.4 " style="fill: #51699F;"></polygon>
</svg>