<svg xmlns="http://www.w3.org/2000/svg" viewBox="-59.2564 -46 693.5128173828125 617.9400024414062"> <svg xmlns="http://www.w3.org/2000/svg" xmlns:xlink="http://www.w3.org/1999/xlink" version="1.1" id="Design" x="10.7436" y="24" viewBox="454.4599914550781 286.3999938964844 371.0799865722656 196.20001220703125" xml:space="preserve" height="292.6571871551106" width="553.5128173828125" preserveAspectRatio="xMinYMin" enable-background="new 0 0 1280 769" style="overflow: visible;"><polygon class="st0" points="593.4,434.75 585.71,436.29 585.71,427.91 591.09,400.93 598.01,394.59 602,427.91  " style="fill: #ABCEE4;"></polygon><polygon class="st1" points="593.4,434.75 585.71,436.29 568.03,462.81 584.18,459.73  " style="fill: #87A6C8;"></polygon><polygon class="st2" points="604.93,388.25 598.01,394.59 602,427.91 593.4,434.75 584.18,459.73 568.03,462.81 588.4,469.73    591.09,465.11 588.4,459.73 603.01,436.29 610.12,430.52 615.31,399.39  " style="fill: #637DAD;"></polygon><polygon class="st3" points="588.4,469.73 589.27,475.49 559.19,477.8 556.12,473.76 568.03,462.81  " style="fill: #3F5591;"></polygon><polygon class="st4" points="612.07,418.84 623.76,412.27 623.76,380.56 615.31,399.39  " style="fill: #51699F;"></polygon><polygon class="st5" points="612.07,334.44 600.32,352.12 596.09,357.12 591.09,400.93 604.93,388.25 602,365.33 612.07,341.74     " style="fill: #7592BA;"></polygon><polygon class="st6" points="585.71,388.25 574.57,374.41 568.03,370.57 567.46,376.53 556.12,382.87 568.03,403.24 571.8,404.39    579.56,412.27 587.52,418.84 591.09,400.93 592.54,388.25  " style="fill: #2D4183;"></polygon><polygon class="st3" points="493.38,382.67 525.66,399.7 529.7,398.24 516.15,384.4  " style="fill: #3F5591;"></polygon><polygon class="st5" points="516.15,384.4 518.17,378.64 524.51,374.41 522.08,390.46  " style="fill: #7592BA;"></polygon><polygon class="st5" points="454.46,408.62 458.79,404.39 481.44,388.25 476.95,398.82  " style="fill: #7592BA;"></polygon><polygon class="st4" points="470.41,396.11 478.68,376.53 487.32,374.41 481.44,388.25  " style="fill: #51699F;"></polygon><polygon class="st7" points="467.15,376.53 478.68,376.53 487.32,374.41 503.18,361.69 501.45,354.43 483.86,370.57 473.2,374.41    465.7,375.18  " style="fill: #336987;"></polygon><polygon class="st5" points="465.7,375.18 464.55,373.31 475.36,370.86 482.71,364.51 483.86,370.57 473.2,374.41  " style="fill: #7592BA;"></polygon><polygon class="st1" points="482.71,364.51 490.06,350.68 496.26,345.06 502.02,350.68 501.45,354.43 483.86,370.57  " style="fill: #87A6C8;"></polygon><polygon class="st3" points="623.76,421.98 625.3,427.91 637.6,448.78 637.6,456.27 643.75,448.78 637.75,425.74  " style="fill: #3F5591;"></polygon><polygon class="st8" points="647.52,432.08 658.07,452.24 649.9,457.62 648.36,446.67  " style="fill: #1B2D75;"></polygon><polygon class="st6" points="648.36,446.67 647.31,428.45 645.83,427.91 637.75,425.74 643.75,448.78 637.6,456.27 636.25,461.46    649.9,457.62  " style="fill: #2D4183;"></polygon><polygon class="st8" points="651.94,456.27 655.28,464.73 634.52,463.77 636.25,461.46 649.9,457.62  " style="fill: #1B2D75;"></polygon><polygon class="st9" points="655.28,464.73 656.62,472.42 655.28,475.3 624.53,475.3 626.07,471.46 634.52,463.77  " style="fill: #142660;"></polygon><polygon class="st4" points="538.82,403.33 544.97,400.26 524.51,374.41 522.08,390.46 529.7,398.24  " style="fill: #51699F;"></polygon><polygon class="st6" points="556.12,399.7 555.25,396.62 552.37,398.91 544.97,400.26 538.82,403.33 529.7,398.24 525.66,399.7    536.9,411.4 541.03,411.4 538.44,407.27 551.12,407.46  " style="fill: #2D4183;"></polygon><polygon class="st8" points="551.12,407.46 544.4,411.4 541.03,411.4 538.44,407.27  " style="fill: #1B2D75;"></polygon><polygon class="st2" points="555.25,396.62 556.12,382.87 549.59,365.48 542.96,376.53 552.76,393.05 552.37,398.91  " style="fill: #637DAD;"></polygon><polygon class="st3" points="542.96,387.29 522.08,369.85 524.51,374.41 544.97,400.26  " style="fill: #3F5591;"></polygon><polygon class="st10" points="623.76,380.56 617.91,342.61 612.07,334.44 612.07,341.74 602,365.33 604.93,388.25 615.31,399.39     " style="fill: #99BAD6;"></polygon><polygon class="st3" points="703.11,411.4 685.93,429.95 672.77,434.75 668.34,427.91 640.87,423.93 634.52,418.84 634.52,418.84    629.14,398.24 623.76,391.71 623.76,412.27 623.76,412.27 612.07,418.84 645.83,427.91 675.26,438.59 683.05,441.48 687.37,436.29    705.82,429.95  " style="fill: #3F5591;"></polygon><polygon class="st4" points="754.82,436.29 778.17,437.26 780.47,432.08 753.38,423.93 742.8,426.44 751.07,429.95  " style="fill: #51699F;"></polygon><polygon class="st3" points="568.03,370.57 557.66,340.59 556.12,346.64 556.12,382.87 567.46,376.53  " style="fill: #3F5591;"></polygon><polygon class="st10" points="574.57,374.41 570.05,327.91 574.57,322.14 596.09,357.12 592.54,388.25 585.71,388.25  " style="fill: #99BAD6;"></polygon><polygon class="st11" points="623.76,300.81 640.87,319.55 617.91,342.61 612.07,334.44  " style="fill: #BDE2F2;"></polygon><polygon class="st0" points="640.87,319.55 679.59,330.5 670.07,334.44 626.47,334.01  " style="fill: #ABCEE4;"></polygon><polygon class="st11" points="649.9,334.24 682.47,370.57 684.77,349.88 670.07,334.44  " style="fill: #BDE2F2;"></polygon><polygon class="st10" points="697.31,331.37 679.59,330.5 670.07,334.44 684.77,349.88 700.05,346.46  " style="fill: #99BAD6;"></polygon><polygon class="st11" points="716.84,326.99 723.34,326.99 742.8,340.19 748.48,349.88 707.68,340.59  " style="fill: #BDE2F2;"></polygon><polygon class="st1" points="769.52,407.27 764.91,376.53 762.13,370.32 758.28,402.04   " style="fill: #87A6C8;"></polygon><polygon class="st2" points="696.3,388.87 697.08,361.78 704.38,352.12 712.45,358.46 700.05,390.46  " style="fill: #637DAD;"></polygon><polygon class="st4" points="712.45,358.46 719.08,366.92 723.34,401.25 710.88,403.05 706.68,394.34 704.38,379.3  " style="fill: #51699F;"></polygon><polygon class="st3" points="704.38,379.3 706.68,394.34 700.05,390.46  " style="fill: #3F5591;"></polygon><polygon class="st5" points="769.52,407.27 758.28,402.04 761.38,376.53 762.13,370.32 754.82,356.44 749.92,369.85 756.03,373.41    744.15,398.24 742.8,404.82 732.65,411.4 786.53,421.98 792.1,417.9  " style="fill: #7592BA;"></polygon><polygon class="st2" points="786.53,421.98 747.71,414.36 753.38,423.93 780.47,432.08 778.17,437.26 785.66,451.57 787.68,444.85     " style="fill: #637DAD;"></polygon><polygon class="st3" points="747.71,414.36 732.65,411.4 742.8,404.82 744.15,398.24 710.88,403.05 716.84,415.44 722.63,417.9    742.8,426.44 753.38,423.93  " style="fill: #3F5591;"></polygon><polygon class="st1" points="792.1,417.9 796.52,423.22 803.44,458.96 797.77,463.58 787.68,444.85 786.53,421.98  " style="fill: #87A6C8;"></polygon><polygon class="st4" points="785.66,451.57 784.22,470.3 797.77,463.58 787.68,444.85  " style="fill: #51699F;"></polygon><polygon class="st3" points="800,461.76 803.44,471.26 784.22,470.3 797.77,463.58  " style="fill: #3F5591;"></polygon><polygon class="st6" points="803.44,471.26 804.59,482.6 775,482.6 784.22,470.3  " style="fill: #2D4183;"></polygon><polygon class="st2" points="696.3,388.87 679.59,420.45 693.22,411.4  " style="fill: #637DAD;"></polygon><polygon class="st1" points="684.77,378.06 682.47,370.57 671.62,358.46 671.62,370.57 655.28,396.62 663.73,398.24 671.62,425.74    679.59,420.45 696.3,388.87 697.08,361.78  " style="fill: #87A6C8;"></polygon><polygon class="st5" points="663.73,398.24 655.28,396.62 636.04,408.07 631.45,380.56 622.11,369.85 623.76,380.56 623.76,391.71    629.14,398.24 634.52,418.84 637.27,415.44 671.62,425.74  " style="fill: #7592BA;"></polygon><polygon class="st1" points="655.28,396.62 637.27,380.76 631.45,380.56 636.04,408.07  " style="fill: #87A6C8;"></polygon><polygon class="st10" points="671.62,370.57 620.69,360.65 622.11,369.85 631.45,380.56 637.27,380.76 655.28,396.62  " style="fill: #99BAD6;"></polygon><polygon class="st1" points="652.12,336.73 619.38,352.12 617.91,342.61 626.47,334.01 649.9,334.24  " style="fill: #87A6C8;"></polygon><polygon class="st0" points="652.12,336.73 671.62,358.46 671.62,370.57 620.69,360.65 619.38,352.12  " style="fill: #ABCEE4;"></polygon><polygon class="st10" points="574.57,322.14 579.56,314.94 556.12,305.14 557.66,340.59 570.05,327.91  " style="fill: #99BAD6;"></polygon><polygon class="st1" points="570.05,327.91 574.57,374.41 568.03,370.57 557.66,340.59  " style="fill: #87A6C8;"></polygon><polygon class="st12" points="719.08,366.92 752.09,352.41 748.48,349.88 707.68,340.59 704.38,345.49 704.38,352.12    712.45,358.46  " style="fill: #CEE7F2;"></polygon><polygon class="st10" points="752.09,352.41 754.82,356.44 749.92,369.85 722.63,393.76 719.08,366.92  " style="fill: #99BAD6;"></polygon><polygon class="st1" points="749.92,369.85 756.03,373.41 744.15,398.24 723.34,401.25 722.63,393.76  " style="fill: #87A6C8;"></polygon><polygon class="st11" points="579.56,314.94 598.01,286.4 609.54,291.78 612.07,334.44 600.32,352.12 596.09,357.12 574.57,322.14     " style="fill: #BDE2F2;"></polygon><polygon class="st0" points="609.54,291.78 623.76,300.81 612.07,334.44  " style="fill: #ABCEE4;"></polygon><polygon class="st0" points="598.01,286.4 568.03,288.32 542.96,302.54 556.12,305.14 579.56,314.94  " style="fill: #ABCEE4;"></polygon><polygon class="st10" points="542.96,302.54 516.15,326.99 516.15,340.19 535.37,336.73 551.12,304.15  " style="fill: #99BAD6;"></polygon><polygon class="st1" points="535.37,336.73 556.12,346.64 557.66,340.59 556.12,305.14 551.12,304.15  " style="fill: #87A6C8;"></polygon><polygon class="st6" points="549.59,365.48 535.37,336.73 556.12,346.64 556.12,382.87  " style="fill: #2D4183;"></polygon><polygon class="st8" points="518.17,378.64 516.15,371.29 522.08,364.51 522.08,369.85 524.51,374.41  " style="fill: #1B2D75;"></polygon><polygon class="st7" points="516.15,371.29 492.51,374.41 487.32,374.41 476.95,398.82 454.46,408.62 454.46,409.66 476.95,402.85    487.61,388.25 493.38,382.67 500.28,383.2 516.15,384.4 518.17,378.64  " style="fill: #336987;"></polygon><polygon class="st4" points="503.18,361.69 516.15,371.29 492.51,374.41 487.32,374.41  " style="fill: #51699F;"></polygon><polygon class="st1" points="522.08,364.51 535.37,336.73 516.15,340.19 516.15,371.29  " style="fill: #87A6C8;"></polygon><polygon class="st4" points="547.28,383.82 542.96,376.53 522.08,369.85 542.96,387.29 544.97,400.26 552.37,398.91 552.76,393.05     " style="fill: #51699F;"></polygon><polygon class="st5" points="542.96,376.53 549.59,365.48 535.37,336.73 522.08,364.51 522.08,369.85  " style="fill: #7592BA;"></polygon><polygon class="st0" points="503.18,361.69 511.54,330.5 516.15,326.99 516.15,371.29  " style="fill: #ABCEE4;"></polygon><polygon class="st11" points="503.18,361.69 501.45,354.43 502.02,350.68 496.26,345.06 511.54,330.5  " style="fill: #BDE2F2;"></polygon><polygon class="st10" points="760.34,366.92 782.92,371.29 775,361.78 752.09,352.41 754.82,356.44  " style="fill: #99BAD6;"></polygon><polygon class="st0" points="775,361.78 778.17,356.44 752.09,342.61 742.8,340.19 748.48,349.88 752.09,352.41  " style="fill: #ABCEE4;"></polygon><polygon class="st11" points="778.17,356.44 794.98,366.92 804.59,381.81 782.92,371.29 775,361.78  " style="fill: #BDE2F2;"></polygon><polygon class="st0" points="804.59,381.81 808.72,388.25 808.72,399.7 800.08,408.07 800.08,391.71 782.92,371.29  " style="fill: #ABCEE4;"></polygon><polygon class="st10" points="808.72,399.7 806.7,421.98 811.32,429.95 799.21,421.98 800.08,408.07  " style="fill: #99BAD6;"></polygon><polygon class="st1" points="811.32,429.95 824.19,441.48 825.54,450.7 803.44,439.36 799.21,432.08 799.21,421.98  " style="fill: #87A6C8;"></polygon><polygon class="st5" points="814.13,444.85 821.89,457.58 824.77,457.58 825.54,450.7  " style="fill: #7592BA;"></polygon><polygon class="st2" points="771.76,369.13 775,379.3 771.76,408.32 769.52,407.27 764.91,376.53 760.34,366.92  " style="fill: #637DAD;"></polygon><polygon class="st3" points="759.43,436.29 741.94,454.06 738.01,463.58 742.8,463.58 779.99,440.74 778.17,437.26  " style="fill: #3F5591;"></polygon><polygon class="st6" points="779.99,440.74 742.8,463.58 738.01,463.58 735.83,466.51 753.38,470.3 753.38,463.69 760.34,463.77    762.37,458.58 782.14,444.85  " style="fill: #2D4183;"></polygon><polygon class="st9" points="753.38,470.3 754.82,478.95 722.63,478.95 725.42,472.99 735.83,466.51  " style="fill: #142660;"></polygon><polygon class="st8" points="647.31,428.45 637.75,425.74 623.76,421.98 625.3,427.91 640.28,435.47 647.44,430.6  " style="fill: #1B2D75;"></polygon><polygon class="st6" points="751.07,429.95 716.84,415.44 716.84,415.44 706.68,394.34 700.05,390.46 705.82,429.95 719.08,420.09   734.93,432.08 754.82,436.29 " style="fill: #2D4183;"></polygon><polygon class="st0" points="697.31,331.37 700.05,346.46 700.05,346.46 684.77,349.88 682.47,370.57 684.77,378.06 704.38,352.12   704.38,345.49 704.38,345.49 704.38,345.49 704.38,345.49 716.84,326.99 " style="fill: #ABCEE4;"></polygon><polygon class="st4" points="700.05,390.46 696.3,388.87 693.22,411.4 693.22,411.4 671.62,425.74 637.27,415.44 634.52,418.84   640.87,423.93 668.34,427.91 672.77,434.75 685.93,429.95 691.5,423.93 703.11,411.4 " style="fill: #51699F;"></polygon></svg> <svg x="88.665" y="327.77" viewBox="0.7899999618530273 6.190000057220459 397.66998291015625 13.229999542236328" height="13.229999542236328" width="397.66998291015625" style="overflow: visible;"><g fill="#142660" fill-opacity="1" style=""><path d="M9.79 15.34L9.79 15.34Q9.79 16.38 9.26 17.32Q8.74 18.25 7.62 18.83Q6.51 19.42 4.75 19.42L4.75 19.42Q3.88 19.42 3.21 19.34Q2.55 19.26 1.98 19.08Q1.41 18.90 0.79 18.61L0.79 18.61L0.79 15.51Q1.84 16.04 2.90 16.32Q3.96 16.59 4.83 16.59L4.83 16.59Q5.34 16.59 5.67 16.47Q6.00 16.35 6.16 16.13Q6.32 15.92 6.32 15.64L6.32 15.64Q6.32 15.30 6.09 15.07Q5.85 14.84 5.34 14.58Q4.83 14.33 4.00 13.95L4.00 13.95Q3.29 13.61 2.71 13.26Q2.14 12.91 1.73 12.46Q1.32 12.01 1.10 11.40Q0.88 10.79 0.88 9.97L0.88 9.97Q0.88 8.73 1.49 7.89Q2.10 7.05 3.19 6.63Q4.29 6.21 5.72 6.21L5.72 6.21Q6.98 6.21 7.98 6.49Q8.99 6.77 9.79 7.13L9.79 7.13L8.73 9.81Q7.90 9.43 7.10 9.21Q6.30 8.98 5.62 8.98L5.62 8.98Q5.17 8.98 4.88 9.09Q4.60 9.20 4.46 9.39Q4.32 9.57 4.32 9.81L4.32 9.81Q4.32 10.11 4.56 10.34Q4.79 10.58 5.34 10.86Q5.89 11.14 6.84 11.58L6.84 11.58Q7.78 12.00 8.44 12.48Q9.10 12.97 9.44 13.65Q9.79 14.33 9.79 15.34ZM21.21 19.24L17.72 19.24L17.72 6.39L21.21 6.39L21.21 19.24ZM35.59 9.23L35.59 19.24L32.12 19.24L32.12 9.23L28.98 9.23L28.98 6.39L38.72 6.39L38.72 9.23L35.59 9.23ZM54.13 16.41L54.13 19.24L46.50 19.24L46.50 6.39L54.13 6.39L54.13 9.18L49.97 9.18L49.97 11.20L53.82 11.20L53.82 13.98L49.97 13.98L49.97 16.41L54.13 16.41ZM86.63 6.39L89.98 6.39L86.81 19.24L82.71 19.24L81.48 13.64Q81.44 13.48 81.37 13.10Q81.29 12.73 81.20 12.24Q81.11 11.76 81.03 11.29Q80.96 10.82 80.92 10.49L80.92 10.49Q80.89 10.82 80.81 11.29Q80.73 11.76 80.64 12.24Q80.54 12.73 80.46 13.10Q80.38 13.48 80.34 13.64L80.34 13.64L79.10 19.24L75.00 19.24L71.82 6.39L75.17 6.39L76.56 12.83Q76.62 13.07 76.71 13.50Q76.80 13.94 76.90 14.45Q77.00 14.97 77.09 15.44Q77.18 15.92 77.21 16.23L77.21 16.23Q77.28 15.69 77.40 14.99Q77.52 14.30 77.67 13.58Q77.81 12.87 77.94 12.25Q78.07 11.64 78.17 11.25L78.17 11.25L79.31 6.39L82.52 6.39L83.62 11.25Q83.71 11.63 83.85 12.25Q83.98 12.87 84.13 13.59Q84.27 14.31 84.39 15.01Q84.52 15.71 84.58 16.23L84.58 16.23Q84.63 15.79 84.75 15.12Q84.88 14.45 85.01 13.81Q85.13 13.17 85.20 12.85L85.20 12.85L86.63 6.39ZM105.21 16.41L105.21 19.24L97.58 19.24L97.58 6.39L105.21 6.39L105.21 9.18L101.05 9.18L101.05 11.20L104.90 11.20L104.90 13.98L101.05 13.98L101.05 16.41L105.21 16.41ZM113.40 19.24L113.40 6.39L117.88 6.39Q120.66 6.39 121.85 7.22Q123.04 8.04 123.04 9.59L123.04 9.59Q123.04 10.43 122.73 11.02Q122.43 11.61 121.97 11.95Q121.51 12.30 121.02 12.42L121.02 12.42L121.02 12.51Q121.55 12.64 122.07 12.94Q122.60 13.25 122.94 13.85Q123.29 14.45 123.29 15.48L123.29 15.48Q123.29 16.65 122.70 17.49Q122.11 18.33 121.01 18.79Q119.91 19.24 118.40 19.24L118.40 19.24L113.40 19.24ZM116.87 9.02L116.87 11.32L117.91 11.32Q118.77 11.32 119.13 10.96Q119.48 10.61 119.48 10.10L119.48 10.10Q119.48 9.57 119.08 9.29Q118.68 9.02 117.84 9.02L117.84 9.02L116.87 9.02ZM118.02 13.86L116.87 13.86L116.87 16.56L118.09 16.56Q118.99 16.56 119.35 16.17Q119.71 15.78 119.71 15.19L119.71 15.19Q119.71 14.84 119.56 14.54Q119.41 14.24 119.04 14.05Q118.67 13.86 118.02 13.86L118.02 13.86ZM142.08 6.39L146.53 6.39Q148.97 6.39 150.19 7.45Q151.41 8.52 151.41 10.48L151.41 10.48Q151.41 11.36 151.15 12.16Q150.90 12.97 150.34 13.61Q149.77 14.24 148.83 14.61Q147.90 14.98 146.53 14.98L146.53 14.98L145.55 14.98L145.55 19.24L142.08 19.24L142.08 6.39ZM146.45 9.19L146.45 9.19L145.55 9.19L145.55 12.15L146.24 12.15Q146.69 12.15 147.07 11.99Q147.46 11.84 147.69 11.49Q147.92 11.14 147.92 10.56L147.92 10.56Q147.92 9.96 147.56 9.58Q147.20 9.19 146.45 9.19ZM159.39 6.39L163.60 6.39Q165.35 6.39 166.51 6.82Q167.67 7.24 168.26 8.09Q168.84 8.93 168.84 10.19L168.84 10.19Q168.84 10.97 168.58 11.61Q168.31 12.25 167.83 12.76Q167.34 13.26 166.66 13.64L166.66 13.64L170.41 19.24L166.47 19.24L163.74 14.56L162.86 14.56L162.86 19.24L159.39 19.24L159.39 6.39ZM163.55 9.02L163.55 9.02L162.86 9.02L162.86 11.95L163.52 11.95Q164.32 11.95 164.82 11.60Q165.33 11.25 165.33 10.34L165.33 10.34Q165.33 9.72 164.91 9.37Q164.49 9.02 163.55 9.02ZM189.54 12.80L189.54 12.80Q189.54 14.28 189.18 15.50Q188.83 16.72 188.07 17.60Q187.31 18.47 186.13 18.94Q184.94 19.42 183.29 19.42L183.29 19.42Q181.67 19.42 180.49 18.94Q179.31 18.47 178.54 17.60Q177.78 16.73 177.41 15.50Q177.04 14.28 177.04 12.78L177.04 12.78Q177.04 10.78 177.70 9.29Q178.37 7.81 179.76 7.00Q181.14 6.19 183.31 6.19L183.31 6.19Q185.50 6.19 186.88 7.00Q188.26 7.82 188.90 9.31Q189.54 10.79 189.54 12.80ZM180.70 12.80L180.70 12.80Q180.70 13.96 180.96 14.79Q181.22 15.63 181.80 16.08Q182.37 16.52 183.29 16.52L183.29 16.52Q184.25 16.52 184.81 16.08Q185.38 15.63 185.63 14.79Q185.88 13.96 185.88 12.80L185.88 12.80Q185.88 11.06 185.30 10.05Q184.72 9.04 183.31 9.04L183.31 9.04Q182.37 9.04 181.79 9.49Q181.21 9.95 180.96 10.79Q180.70 11.64 180.70 12.80ZM220.09 19.24L216.30 19.24L215.67 16.83L211.49 16.83L210.84 19.24L207.03 19.24L211.22 6.34L215.85 6.34L220.09 19.24ZM212.21 13.98L214.94 13.98L214.39 11.87Q214.30 11.53 214.14 10.89Q213.97 10.26 213.81 9.58Q213.64 8.89 213.56 8.46L213.56 8.46Q213.48 8.89 213.33 9.54Q213.19 10.19 213.03 10.82Q212.88 11.45 212.76 11.87L212.76 11.87L212.21 13.98ZM238.04 6.39L242.49 6.39Q244.93 6.39 246.15 7.45Q247.36 8.52 247.36 10.48L247.36 10.48Q247.36 11.36 247.11 12.16Q246.86 12.97 246.30 13.61Q245.73 14.24 244.79 14.61Q243.86 14.98 242.49 14.98L242.49 14.98L241.51 14.98L241.51 19.24L238.04 19.24L238.04 6.39ZM242.41 9.19L242.41 9.19L241.51 9.19L241.51 12.15L242.20 12.15Q242.64 12.15 243.03 11.99Q243.42 11.84 243.65 11.49Q243.88 11.14 243.88 10.56L243.88 10.56Q243.88 9.96 243.52 9.58Q243.16 9.19 242.41 9.19ZM255.35 6.39L259.56 6.39Q261.31 6.39 262.47 6.82Q263.63 7.24 264.22 8.09Q264.80 8.93 264.80 10.19L264.80 10.19Q264.80 10.97 264.54 11.61Q264.27 12.25 263.79 12.76Q263.30 13.26 262.62 13.64L262.62 13.64L266.37 19.24L262.43 19.24L259.70 14.56L258.82 14.56L258.82 19.24L255.35 19.24L255.35 6.39ZM259.51 9.02L259.51 9.02L258.82 9.02L258.82 11.95L259.47 11.95Q260.27 11.95 260.78 11.60Q261.29 11.25 261.29 10.34L261.29 10.34Q261.29 9.72 260.87 9.37Q260.45 9.02 259.51 9.02ZM276.96 19.24L273.47 19.24L273.47 6.39L276.96 6.39L276.96 19.24ZM292.88 12.94L297.26 19.24L293.24 19.24L290.73 15.22L288.26 19.24L284.33 19.24L288.59 12.67L284.58 6.39L288.43 6.39L290.75 10.36L292.98 6.39L296.95 6.39L292.88 12.94ZM324.16 19.24L320.85 19.24L318.22 9.98L318.14 9.98Q318.18 10.34 318.22 10.96Q318.26 11.58 318.29 12.29Q318.33 13.00 318.33 13.66L318.33 13.66L318.33 19.24L315.25 19.24L315.25 6.39L319.88 6.39L322.56 15.51L322.63 15.51L325.26 6.39L329.89 6.39L329.89 19.24L326.70 19.24L326.70 13.61Q326.70 13.00 326.72 12.30Q326.74 11.60 326.77 10.98Q326.80 10.36 326.83 10.00L326.83 10.00L326.75 10.00L324.16 19.24ZM350.28 19.24L346.48 19.24L345.85 16.83L341.67 16.83L341.02 19.24L337.21 19.24L341.40 6.34L346.03 6.34L350.28 19.24ZM342.39 13.98L345.13 13.98L344.57 11.87Q344.48 11.53 344.32 10.89Q344.15 10.26 343.99 9.58Q343.82 8.89 343.74 8.46L343.74 8.46Q343.66 8.89 343.51 9.54Q343.37 10.19 343.21 10.82Q343.06 11.45 342.95 11.87L342.95 11.87L342.39 13.98ZM366.02 19.24L357.60 19.24L357.60 6.39L361.08 6.39L361.08 16.44L366.02 16.44L366.02 19.24ZM377.51 19.24L374.02 19.24L374.02 6.39L377.51 6.39L377.51 19.24ZM398.46 6.39L398.46 19.24L393.91 19.24L389.22 10.19L389.14 10.19Q389.18 10.60 389.22 11.18Q389.25 11.76 389.28 12.36Q389.30 12.96 389.30 13.45L389.30 13.45L389.30 19.24L386.23 19.24L386.23 6.39L390.76 6.39L395.44 15.32L395.49 15.32Q395.47 14.90 395.44 14.34Q395.41 13.78 395.39 13.21Q395.37 12.64 395.37 12.20L395.37 12.20L395.37 6.39L398.46 6.39Z" transform="translate(0, 0)"></path></g></svg> <svg x="132.385" y="357" viewBox="2.5399999618530273 15.520000457763672 310.22998046875 144.94000244140625" height="144.94000244140625" width="310.22998046875" style="overflow: visible;"><g fill="#2D4183" fill-opacity="1" style=""><path d="M75.24 43.63L75.24 43.63Q78.73 43.63 80.99 44.74Q83.25 45.85 84.58 47.92Q85.92 49.99 86.43 52.85Q86.94 55.71 86.94 59.15L86.94 59.15Q86.94 62.01 86.65 65.22Q86.36 68.43 86.05 71.86L86.05 71.86Q85.22 79.75 84.68 87.38Q84.14 95.01 84.14 102.33L84.14 102.33Q84.14 110.53 84.93 117.11Q85.73 123.70 87.54 129.04Q89.35 134.38 92.34 138.61Q95.33 142.84 99.72 146.27L99.72 146.27Q100.42 146.85 100.80 147.20Q101.18 147.55 101.18 148.05L101.18 148.05Q101.18 148.88 100.04 148.88L100.04 148.88Q99.40 148.88 98.64 148.63L98.64 148.63Q94.25 146.97 89.54 143.79Q84.84 140.61 80.96 135.53Q77.08 130.44 74.57 123.16Q72.06 115.87 72.06 105.95L72.06 105.95Q72.06 99.21 72.50 92.60Q72.95 85.98 73.49 80.10Q74.03 74.22 74.47 69.29Q74.92 64.36 74.92 60.86L74.92 60.86Q74.92 58.95 74.60 57.87Q74.28 56.79 73.80 56.25Q73.33 55.71 72.69 55.58Q72.06 55.46 71.48 55.46L71.48 55.46Q70.72 55.46 69.96 55.97Q69.19 56.47 68.43 57.87Q67.67 59.27 66.94 61.66Q66.20 64.04 65.57 67.86L65.57 67.86Q65.12 70.21 64.58 73.52Q64.04 76.83 63.37 80.58Q62.71 84.33 62.04 88.24Q61.37 92.15 60.77 95.65Q60.16 99.15 59.62 101.98Q59.08 104.81 58.70 106.40L58.70 106.40Q57.11 113.14 54.60 116.26Q52.09 119.37 48.27 119.37L48.27 119.37Q45.47 119.37 43.85 118.10Q42.23 116.83 41.40 114.92Q40.57 113.01 40.38 110.75Q40.19 108.50 40.19 106.52L40.19 106.52Q40.19 93.74 40.51 81.47Q40.83 69.19 40.83 56.86L40.83 56.86Q40.83 52.28 40.57 48.65Q40.32 45.03 39.49 42.51Q38.67 40.00 37.20 38.64Q35.74 37.27 33.39 37.27L33.39 37.27Q31.16 37.27 29.54 39.84Q27.92 42.42 26.84 46.87Q25.76 51.32 25.18 57.36Q24.61 63.41 24.42 70.34L24.42 70.34Q24.29 75.11 24.20 80.07Q24.10 85.03 23.91 89.70Q23.72 94.38 23.40 98.54Q23.09 102.71 22.64 106.02L22.64 106.02Q22.20 111.74 21.59 115.46Q20.99 119.18 20.54 121.09L20.54 121.09Q20.16 122.74 19.21 123.38Q18.25 124.01 17.08 124.20Q15.90 124.40 14.69 124.40Q13.48 124.40 12.59 124.78L12.59 124.78Q11.51 125.22 10.37 125.22L10.37 125.22Q9.29 125.22 8.55 124.71Q7.82 124.20 7.82 122.93L7.82 122.93Q7.82 122.49 7.89 122.17L7.89 122.17Q8.01 121.41 8.43 118.86Q8.84 116.32 9.38 112.73Q9.92 109.13 10.49 104.81Q11.07 100.48 11.51 96.10Q11.96 91.71 12.27 87.57Q12.59 83.44 12.59 80.26L12.59 80.26Q12.59 74.98 12.24 70.94Q11.89 66.90 11.32 63.76Q10.75 60.61 9.95 58.10Q9.16 55.58 8.27 53.33Q7.38 51.07 6.46 48.81Q5.53 46.55 4.64 43.88L4.64 43.88Q3.50 40.45 3.02 37.11Q2.54 33.77 2.54 30.65L2.54 30.65Q2.54 27.47 2.96 24.71Q3.37 21.94 4.04 19.91Q4.71 17.87 5.47 16.69Q6.23 15.52 6.93 15.52L6.93 15.52Q7.76 15.52 8.20 16.54Q8.65 17.55 8.65 19.02L8.65 19.02Q8.65 19.52 8.62 20.22Q8.59 20.92 8.59 21.88L8.59 21.88Q8.59 23.47 8.78 25.72Q8.97 27.98 9.67 30.94Q10.37 33.90 11.70 37.52Q13.04 41.15 15.33 45.47L15.33 45.47Q16.34 47.38 17.17 49.26Q18.00 51.13 18.70 52.98L18.70 52.98Q19.84 47.19 21.72 42.99Q23.59 38.79 25.76 35.87Q27.92 32.94 30.21 31.10Q32.50 29.25 34.60 28.27Q36.70 27.28 38.35 26.93Q40.00 26.58 40.96 26.58L40.96 26.58Q43.63 26.58 45.54 28.05Q47.44 29.51 48.81 32.08Q50.18 34.66 51.04 38.13Q51.90 41.59 52.37 45.57Q52.85 49.54 53.01 53.83Q53.17 58.13 53.17 62.33L53.17 62.33Q53.17 71.04 52.88 77.37Q52.59 83.69 52.24 88.37Q51.90 93.04 51.61 96.38Q51.32 99.72 51.32 102.45L51.32 102.45Q51.32 103.15 51.61 103.54Q51.90 103.92 52.28 103.92L52.28 103.92Q52.91 103.92 53.36 103.35Q53.80 102.77 54.28 100.83Q54.76 98.89 55.36 95.14Q55.97 91.39 56.98 85.03L56.98 85.03Q57.81 79.75 58.51 74.66Q59.21 69.58 60.07 64.96Q60.93 60.35 62.07 56.44Q63.22 52.53 64.96 49.70Q66.71 46.87 69.19 45.25Q71.67 43.63 75.24 43.63ZM108.88 112.69L108.88 112.69Q110.40 112.69 111.55 111.68Q112.69 110.66 113.49 109.01Q114.28 107.35 114.79 105.16Q115.30 102.96 115.56 100.61L115.56 100.61Q113.71 99.34 111.96 97.30Q110.21 95.27 108.81 92.34L108.81 92.34Q107.99 90.63 107.61 88.81Q107.22 87.00 107.22 85.35L107.22 85.35Q107.22 83.25 107.80 81.40Q108.37 79.56 109.48 78.22Q110.60 76.89 112.25 76.09Q113.90 75.30 116.06 75.30L116.06 75.30Q118.80 75.30 120.55 76.60Q122.30 77.91 123.31 79.91Q124.33 81.91 124.75 84.27Q125.16 86.62 125.16 88.65L125.16 88.65Q125.16 91.33 124.81 94.12Q124.46 96.92 123.70 99.78L123.70 99.78Q126.05 99.59 127.89 98.48Q129.74 97.37 131.01 94.70L131.01 94.70Q131.77 93.11 132.60 93.11L132.60 93.11Q133.04 93.11 133.39 93.36Q133.74 93.61 133.74 94.19L133.74 94.19Q133.74 94.63 133.55 95.08L133.55 95.08Q132.28 98.70 129.32 100.80Q126.37 102.90 122.74 102.90L122.74 102.90Q121.66 106.02 120.10 108.78Q118.54 111.55 116.45 113.65Q114.35 115.75 111.68 116.95Q109.01 118.16 105.76 118.16L105.76 118.16Q104.04 118.16 101.88 117.65Q99.72 117.15 97.81 115.52Q95.90 113.90 94.60 110.94Q93.30 107.99 93.30 103.09L93.30 103.09Q93.30 99.08 94.79 94.63Q96.29 90.18 99.78 85.79L99.78 85.79Q101.12 84.14 102.23 83.44Q103.35 82.74 104.04 82.74L104.04 82.74Q105.44 82.74 105.44 84.46L105.44 84.46Q105.44 85.22 104.94 86.36Q104.43 87.51 103.85 89.29Q103.28 91.07 102.77 93.52Q102.26 95.97 102.26 99.27L102.26 99.27Q102.26 105.63 104.08 109.16Q105.89 112.69 108.88 112.69ZM115.94 94.00L115.94 94.00Q115.94 87.51 114.73 84.68Q113.52 81.85 112.06 82.42L112.06 82.42Q111.42 82.68 111.33 83.57Q111.23 84.46 111.23 85.28L111.23 85.28Q111.23 86.68 111.61 88.21Q111.99 89.74 112.60 91.26Q113.20 92.79 114.06 94.16Q114.92 95.52 115.87 96.67L115.87 96.67Q115.94 95.97 115.94 95.33Q115.94 94.70 115.94 94.00ZM162.11 95.08L162.11 95.08Q160.65 100.04 159.12 104.24Q157.59 108.43 155.88 111.49Q154.16 114.54 152.09 116.26Q150.03 117.97 147.42 117.97L147.42 117.97Q144.24 117.97 142.30 114.76Q140.36 111.55 140.36 106.27L140.36 106.27Q140.36 103.98 140.58 101.95Q140.80 99.91 141.09 98.00Q141.38 96.10 141.60 94.31Q141.82 92.53 141.82 90.82L141.82 90.82Q141.82 88.97 141.38 88.40Q140.93 87.83 140.23 87.83L140.23 87.83Q140.10 87.83 139.98 87.86Q139.85 87.89 139.50 87.92Q139.15 87.95 138.48 88.05Q137.81 88.15 136.67 88.27L136.67 88.27Q135.97 89.80 135.53 90.85Q135.08 91.90 134.76 92.66Q134.44 93.42 134.22 93.96Q134.00 94.51 133.81 95.08L133.81 95.08Q133.30 96.29 132.92 96.57Q132.54 96.86 132.03 96.86L132.03 96.86Q131.65 96.86 131.36 96.54Q131.07 96.22 131.07 95.65L131.07 95.65Q131.07 95.27 131.26 94.73Q131.46 94.19 131.74 93.33Q132.03 92.47 132.38 91.13Q132.73 89.80 133.11 87.83L133.11 87.83Q131.84 87.26 130.91 85.12Q129.99 82.99 129.99 80.13L129.99 80.13Q129.99 77.78 130.79 75.36Q131.58 72.95 132.76 70.94Q133.94 68.94 135.30 67.67Q136.67 66.40 137.75 66.40L137.75 66.40Q139.15 66.40 140.14 68.08Q141.12 69.77 141.12 71.93L141.12 71.93Q141.12 73.07 140.87 74.25Q140.61 75.43 140.33 76.41Q140.04 77.40 139.79 78.19Q139.53 78.99 139.53 79.43L139.53 79.43Q139.53 80.01 139.98 80.01L139.98 80.01Q140.30 80.01 141.12 79.69L141.12 79.69L144.24 78.29Q145.96 77.59 147.16 77.59L147.16 77.59Q149.20 77.59 149.87 78.86Q150.53 80.13 150.53 82.61L150.53 82.61Q150.53 83.69 150.28 86.40Q150.03 89.10 149.74 92.37Q149.45 95.65 149.23 98.89Q149.01 102.14 149.01 104.17L149.01 104.17Q149.01 106.40 149.48 107.45Q149.96 108.50 151.55 108.50L151.55 108.50Q152.70 108.50 153.81 107.16Q154.92 105.83 155.94 103.79Q156.96 101.76 157.88 99.34Q158.80 96.92 159.56 94.70L159.56 94.70Q160.14 93.11 161.22 93.11L161.22 93.11Q162.24 93.11 162.24 94.25L162.24 94.25Q162.24 94.44 162.20 94.63Q162.17 94.82 162.11 95.08ZM176.42 50.81L176.42 50.81Q176.61 51.20 176.61 51.64L176.61 51.64Q176.61 52.85 175.08 54.18L175.08 54.18Q173.81 55.33 172.73 56.41Q171.65 57.49 170.76 58.35Q169.87 59.21 169.17 59.72Q168.47 60.23 168.02 60.23L168.02 60.23Q167.71 60.23 167.42 60.10Q167.13 59.97 166.88 59.53L166.88 59.53Q166.12 58.06 165.35 56.47Q164.59 54.88 163.98 53.49Q163.38 52.09 163.00 51.04Q162.62 49.99 162.62 49.61L162.62 49.61Q162.62 48.91 163.25 48.08L163.25 48.08Q163.51 47.70 164.43 46.62Q165.35 45.54 166.40 44.33Q167.45 43.12 168.37 42.10Q169.30 41.08 169.61 40.77L169.61 40.77Q170.38 39.88 170.89 39.88L170.89 39.88Q171.46 39.88 171.78 40.70L171.78 40.70Q171.97 41.15 172.63 42.61Q173.30 44.07 174.07 45.76Q174.83 47.44 175.53 48.91Q176.23 50.37 176.42 50.81ZM184.88 93.11L184.88 93.11Q185.26 93.11 185.54 93.39Q185.83 93.68 185.83 94.19L185.83 94.19Q185.83 94.63 185.64 95.08L185.64 95.08Q184.18 99.27 182.94 102.71Q181.70 106.14 180.42 108.81L180.42 108.81Q178.58 112.82 176.90 114.95Q175.21 117.08 173.11 117.78L173.11 117.78Q172.60 117.91 171.97 118.04Q171.33 118.16 170.63 118.16L170.63 118.16Q169.04 118.16 167.23 117.53Q165.42 116.89 163.86 115.11Q162.30 113.33 161.28 110.12Q160.26 106.91 160.26 101.76L160.26 101.76Q160.26 97.18 160.58 92.95Q160.90 88.72 161.54 84.39L161.54 84.39Q162.49 82.42 163.86 80.80Q165.23 79.18 166.62 78.00Q168.02 76.83 169.20 76.19Q170.38 75.55 170.95 75.55L170.95 75.55Q171.20 75.55 171.20 76.13L171.20 76.13Q171.20 76.63 171.04 77.87Q170.89 79.11 170.69 81.34Q170.50 83.57 170.28 87.03Q170.06 90.50 169.93 95.46L169.93 95.46Q169.93 98.32 170.28 100.74Q170.63 103.15 171.30 104.94Q171.97 106.72 172.92 107.70Q173.87 108.69 175.02 108.69L175.02 108.69Q176.10 108.69 177.05 107.64Q178.01 106.59 178.96 104.71Q179.92 102.84 180.93 100.26Q181.95 97.69 183.10 94.70L183.10 94.70Q183.73 93.11 184.88 93.11ZM218.96 95.08L218.96 95.08Q217.06 100.80 215.40 105.09Q213.75 109.39 212.10 112.28Q210.44 115.17 208.57 116.64Q206.69 118.10 204.40 118.10L204.40 118.10Q202.81 118.10 201.76 117.08Q200.71 116.06 200.01 114.79Q199.31 113.52 198.96 112.34Q198.61 111.17 198.49 110.79L198.49 110.79Q198.42 110.66 198.36 110.40Q198.30 110.15 198.17 110.15L198.17 110.15Q198.04 110.15 197.95 110.34Q197.85 110.53 197.72 110.72L197.72 110.72Q197.53 111.17 196.71 112.38Q195.88 113.58 194.64 114.86Q193.40 116.13 191.81 117.11Q190.22 118.10 188.37 118.10L188.37 118.10Q186.91 118.10 185.54 117.15Q184.18 116.19 183.16 114.57Q182.14 112.95 181.54 110.72Q180.93 108.50 180.93 105.95L180.93 105.95Q180.93 100.42 182.68 95.55Q184.43 90.69 188.37 85.79L188.37 85.79Q190.28 83.44 192.41 81.59Q194.54 79.75 196.58 78.51Q198.61 77.27 200.49 76.63Q202.37 76.00 203.70 76.00L203.70 76.00Q204.59 76.00 205.48 76.32Q206.37 76.63 207.07 77.40Q207.77 78.16 208.18 79.40Q208.60 80.64 208.60 82.42L208.60 82.42Q208.60 84.33 207.99 86.56Q207.39 88.78 206.21 90.72Q205.04 92.66 203.32 93.93Q201.60 95.20 199.44 95.20L199.44 95.20Q198.10 95.20 198.10 94.19L198.10 94.19Q198.10 93.49 198.45 91.90Q198.80 90.31 198.80 88.85L198.80 88.85Q198.80 88.27 198.74 87.48Q198.68 86.68 198.42 85.92Q198.17 85.16 197.72 84.65Q197.28 84.14 196.51 84.14L196.51 84.14Q194.80 84.14 193.53 85.73Q192.25 87.32 191.40 89.61Q190.54 91.90 190.09 94.38Q189.65 96.86 189.65 98.64L189.65 98.64Q189.65 101.06 190.03 102.68Q190.41 104.30 191.05 105.28Q191.68 106.27 192.51 106.68Q193.33 107.10 194.23 107.10L194.23 107.10Q196.32 107.10 197.98 105.67Q199.63 104.24 200.84 102.49Q202.05 100.74 202.84 99.31Q203.64 97.88 204.15 97.88L204.15 97.88Q204.72 97.88 204.91 99.21L204.91 99.21Q205.29 102.07 205.74 103.92Q206.18 105.76 206.63 106.81Q207.07 107.86 207.55 108.27Q208.03 108.69 208.53 108.69L208.53 108.69Q209.49 108.69 210.44 107.57Q211.40 106.46 212.35 104.55Q213.30 102.65 214.32 100.10Q215.34 97.56 216.48 94.70L216.48 94.70Q217.18 93.11 218.14 93.11L218.14 93.11Q219.09 93.11 219.09 94.25L219.09 94.25Q219.09 94.70 218.96 95.08ZM247.52 95.08L247.52 95.08Q246.06 100.04 244.53 104.24Q243.00 108.43 241.29 111.49Q239.57 114.54 237.50 116.26Q235.44 117.97 232.83 117.97L232.83 117.97Q229.65 117.97 227.71 114.76Q225.77 111.55 225.77 106.27L225.77 106.27Q225.77 103.98 225.99 101.95Q226.21 99.91 226.50 98.00Q226.79 96.10 227.01 94.31Q227.23 92.53 227.23 90.82L227.23 90.82Q227.23 88.97 226.79 88.40Q226.34 87.83 225.64 87.83L225.64 87.83Q225.51 87.83 225.39 87.86Q225.26 87.89 224.91 87.92Q224.56 87.95 223.89 88.05Q223.23 88.15 222.08 88.27L222.08 88.27Q221.38 89.80 220.94 90.85Q220.49 91.90 220.17 92.66Q219.85 93.42 219.63 93.96Q219.41 94.51 219.22 95.08L219.22 95.08Q218.71 96.29 218.33 96.57Q217.95 96.86 217.44 96.86L217.44 96.86Q217.06 96.86 216.77 96.54Q216.48 96.22 216.48 95.65L216.48 95.65Q216.48 95.27 216.68 94.73Q216.87 94.19 217.15 93.33Q217.44 92.47 217.79 91.13Q218.14 89.80 218.52 87.83L218.52 87.83Q217.25 87.26 216.33 85.12Q215.40 82.99 215.40 80.13L215.40 80.13Q215.40 77.78 216.20 75.36Q216.99 72.95 218.17 70.94Q219.35 68.94 220.71 67.67Q222.08 66.40 223.16 66.40L223.16 66.40Q224.56 66.40 225.55 68.08Q226.53 69.77 226.53 71.93L226.53 71.93Q226.53 73.07 226.28 74.25Q226.02 75.43 225.74 76.41Q225.45 77.40 225.20 78.19Q224.94 78.99 224.94 79.43L224.94 79.43Q224.94 80.01 225.39 80.01L225.39 80.01Q225.71 80.01 226.53 79.69L226.53 79.69L229.65 78.29Q231.37 77.59 232.57 77.59L232.57 77.59Q234.61 77.59 235.28 78.86Q235.94 80.13 235.94 82.61L235.94 82.61Q235.94 83.69 235.69 86.40Q235.44 89.10 235.15 92.37Q234.86 95.65 234.64 98.89Q234.42 102.14 234.42 104.17L234.42 104.17Q234.42 106.40 234.90 107.45Q235.37 108.50 236.96 108.50L236.96 108.50Q238.11 108.50 239.22 107.16Q240.33 105.83 241.35 103.79Q242.37 101.76 243.29 99.34Q244.21 96.92 244.98 94.70L244.98 94.70Q245.55 93.11 246.63 93.11L246.63 93.11Q247.65 93.11 247.65 94.25L247.65 94.25Q247.65 94.44 247.61 94.63Q247.58 94.82 247.52 95.08ZM270.80 95.08L270.80 95.08Q268.76 100.93 267.14 105.25Q265.52 109.58 263.86 112.47Q262.21 115.36 260.30 116.80Q258.39 118.23 255.72 118.23L255.72 118.23Q254.20 118.23 252.48 117.37Q250.76 116.51 249.30 114.09Q247.84 111.68 246.88 107.32Q245.93 102.96 245.93 95.97L245.93 95.97Q245.93 94.12 246.09 91.10Q246.25 88.08 246.47 84.36Q246.69 80.64 247.01 76.48Q247.33 72.31 247.71 68.11L247.71 68.11Q247.39 68.18 247.14 68.21Q246.88 68.24 246.57 68.24L246.57 68.24Q243.13 68.62 241.54 68.91Q239.95 69.19 239.63 69.51L239.63 69.51Q239.32 69.77 239.32 70.12Q239.32 70.47 239.28 70.75Q239.25 71.04 239.09 71.26Q238.93 71.48 238.43 71.48L238.43 71.48Q238.11 71.48 237.63 71.32Q237.15 71.17 236.68 70.82Q236.20 70.47 235.88 69.92Q235.56 69.38 235.56 68.62L235.56 68.62Q235.56 67.92 235.85 67.16Q236.14 66.40 236.58 65.70L236.58 65.70Q237.03 64.93 237.88 63.85Q238.74 62.77 240.17 61.66Q241.61 60.54 243.70 59.59Q245.80 58.64 248.66 58.06L248.66 58.06Q248.98 55.39 249.33 53.33Q249.68 51.26 250.06 49.64Q250.45 48.02 250.79 46.71Q251.14 45.41 251.53 44.33L251.53 44.33Q252.29 41.85 253.43 40.54Q254.58 39.24 256.04 37.78L256.04 37.78Q257.63 36.19 258.74 35.65Q259.86 35.11 260.43 35.04L260.43 35.04Q261.00 35.04 261.48 35.39Q261.96 35.74 261.96 36.63L261.96 36.63Q261.96 37.14 261.89 37.49Q261.83 37.84 261.77 38.09L261.77 38.09Q261.57 38.79 261.16 40.57Q260.75 42.36 260.21 44.93Q259.67 47.51 259.09 50.72Q258.52 53.93 258.08 57.56L258.08 57.56Q261.51 57.81 263.83 58.41Q266.15 59.02 266.66 59.15L266.66 59.15Q267.74 59.53 268.12 59.84Q268.51 60.16 268.82 60.93L268.82 60.93Q269.08 61.43 269.43 61.75Q269.78 62.07 270.13 62.33Q270.48 62.58 270.73 62.90Q270.99 63.22 270.99 63.79L270.99 63.79Q270.99 64.30 270.73 64.77Q270.48 65.25 270.16 65.38L270.16 65.38Q269.71 65.63 268.51 65.85Q267.30 66.08 265.58 66.30Q263.86 66.52 261.67 66.75Q259.48 66.97 257.12 67.22L257.12 67.22Q256.36 75.11 255.63 82.42Q254.90 89.74 254.90 95.46L254.90 95.46Q254.90 98.38 255.25 100.80Q255.60 103.22 256.30 104.97Q257.00 106.72 257.98 107.67Q258.97 108.62 260.24 108.62L260.24 108.62Q261.38 108.62 262.34 107.57Q263.29 106.52 264.25 104.68Q265.20 102.84 266.19 100.29Q267.17 97.75 268.32 94.70L268.32 94.70Q268.89 93.11 269.97 93.11L269.97 93.11Q270.99 93.11 270.99 94.25L270.99 94.25Q270.99 94.44 270.92 94.70Q270.86 94.95 270.80 95.08ZM312.58 94.70L312.58 94.70Q311.31 98.45 309.88 101.85Q308.45 105.25 306.63 108.34Q304.82 111.42 302.47 114.25Q300.11 117.08 297.00 119.75L297.00 119.75Q296.81 122.81 296.49 125.92Q296.17 129.04 295.79 132.03L295.79 132.03Q294.77 139.79 293.18 144.65Q291.59 149.52 289.81 152.44Q288.03 155.37 286.22 156.77Q284.41 158.17 283.01 158.87L283.01 158.87Q279.83 160.46 277.66 160.46L277.66 160.46Q274.74 160.46 273.15 157.53Q271.56 154.60 271.56 149.96L271.56 149.96Q271.56 145.57 273.02 141.69Q274.48 137.81 276.81 134.38Q279.13 130.95 282.02 127.99Q284.91 125.03 287.84 122.55L287.84 122.55Q288.03 120.13 288.13 118.04Q288.22 115.94 288.35 114.47L288.35 114.47Q288.54 110.72 288.60 106.56Q288.67 102.39 288.79 98.83L288.79 98.83Q287.33 104.43 285.87 108.11Q284.41 111.80 282.91 113.97Q281.42 116.13 279.83 117.02Q278.24 117.91 276.46 117.91L276.46 117.91Q275.18 117.91 273.85 117.18Q272.51 116.45 271.40 114.44Q270.29 112.44 269.59 108.85Q268.89 105.25 268.89 99.59L268.89 99.59Q268.89 97.30 269.05 94.92Q269.21 92.53 269.52 90.28Q269.84 88.02 270.22 86.01Q270.61 84.01 271.11 82.49L271.11 82.49Q271.37 81.72 271.75 81.31Q272.13 80.90 272.39 80.58L272.39 80.58Q272.70 80.20 272.93 79.91Q273.15 79.62 273.47 79.62L273.47 79.62Q273.98 79.62 274.17 79.97Q274.36 80.32 274.87 80.32L274.87 80.32Q275.06 80.32 275.57 80.04Q276.07 79.75 276.65 79.37Q277.22 78.99 277.79 78.70Q278.36 78.42 278.75 78.42L278.75 78.42Q279.45 78.42 279.45 79.56L279.45 79.56Q279.45 80.01 279.35 80.58Q279.25 81.15 279.13 81.91L279.13 81.91Q278.49 84.84 278.33 88.05Q278.17 91.26 278.17 95.46L278.17 95.46Q278.17 98.32 278.21 100.71Q278.24 103.09 278.49 104.81Q278.75 106.52 279.29 107.48Q279.83 108.43 280.78 108.43L280.78 108.43Q281.93 108.43 282.91 106.78Q283.90 105.13 284.79 102.55Q285.68 99.97 286.50 96.79Q287.33 93.61 288.16 90.53Q288.98 87.45 289.78 84.81Q290.57 82.17 291.47 80.64L291.47 80.64Q292.16 79.50 293.66 78.67Q295.15 77.84 296.30 77.84L296.30 77.84Q296.93 77.84 297.38 78.00Q297.82 78.16 298.14 78.64Q298.46 79.11 298.62 80.04Q298.78 80.96 298.78 82.49L298.78 82.49Q298.78 85.09 298.68 88.18Q298.59 91.26 298.46 94.16Q298.33 97.05 298.21 99.34Q298.08 101.63 298.02 102.65L298.02 102.65Q297.89 104.11 297.73 107.45Q297.57 110.79 297.32 115.11L297.32 115.11Q299.67 113.14 301.48 110.94Q303.29 108.75 304.76 106.24Q306.22 103.73 307.49 100.86Q308.76 98.00 309.97 94.70L309.97 94.70Q310.67 92.98 311.88 92.98L311.88 92.98Q312.77 92.98 312.77 93.87L312.77 93.87Q312.77 94.06 312.71 94.31Q312.64 94.57 312.58 94.70ZM286.50 133.74L286.50 133.74Q286.70 132.60 286.89 131.39Q287.08 130.18 287.20 128.91L287.20 128.91Q285.42 131.01 283.93 133.36Q282.43 135.72 281.38 138.48Q280.34 141.25 279.73 144.46Q279.13 147.67 279.13 151.49L279.13 151.49Q279.13 153.65 279.48 154.54Q279.83 155.43 280.21 155.43L280.21 155.43Q280.84 155.43 281.54 154.22Q282.24 153.01 282.85 151.11Q283.45 149.20 284.02 146.81Q284.60 144.43 285.07 142.01Q285.55 139.60 285.93 137.40Q286.31 135.21 286.50 133.74Z" transform="translate(0, 0)"></path></g></svg></svg>